<svg width="5" height="5" viewBox="0 0 5 5" fill="none" xmlns="http://www.w3.org/2000/svg">
<path d="M2.6904 3.24967C2.67831 3.27918 2.64957 3.29846 2.61768 3.29846C2.58578 3.29846 2.55704 3.27918 2.54495 3.24967L1.37222 0.387586C1.28913 0.184813 1.09173 0.0523682 0.872596 0.0523682C0.482803 0.0523682 0.221442 0.452775 0.378317 0.809607L1.76305 3.95937C1.91208 4.29835 2.24738 4.51721 2.61768 4.51721C2.98797 4.51721 3.32327 4.29835 3.4723 3.95937L4.85703 0.809606C5.01391 0.452775 4.75255 0.0523682 4.36276 0.0523682C4.14362 0.0523682 3.94622 0.184813 3.86313 0.387587L2.6904 3.24967Z" fill="black"/>
</svg>
