<svg width="11" height="11" viewBox="0 0 11 11" fill="none" xmlns="http://www.w3.org/2000/svg">
<path d="M10.1247 9.64889C10.1349 9.91409 9.91904 10.125 9.66003 10.125C9.39842 10.125 9.19216 9.91365 9.18154 9.65892C9.14157 8.70001 8.93328 7.75466 8.56533 6.86634C8.15381 5.87285 7.55064 4.97014 6.79025 4.20975C6.02986 3.44936 5.12715 2.84619 4.13366 2.43467C3.24534 2.06672 2.29999 1.85843 1.34108 1.81846C1.08635 1.80784 0.875 1.60159 0.875 1.33997C0.875 1.08096 1.08591 0.865139 1.35111 0.875343C2.43044 0.916873 3.49482 1.14962 4.49444 1.56368C5.60231 2.02257 6.60895 2.69519 7.45688 3.54312C8.30481 4.39105 8.97743 5.39769 9.43632 6.50556C9.85038 7.50518 10.0831 8.56956 10.1247 9.64889ZM5.62478 9.82204C5.63131 9.99166 5.49338 10.125 5.33001 10.125C5.16405 10.125 5.03496 9.99123 5.02833 9.83206C5.00864 9.35993 4.90609 8.89447 4.72492 8.45709C4.5223 7.96792 4.22532 7.52346 3.85093 7.14907C3.47654 6.77468 3.03208 6.4777 2.54291 6.27508C2.10553 6.09391 1.64007 5.99136 1.16794 5.97167C1.00877 5.96504 0.875 5.83595 0.875 5.66999C0.875 5.50662 1.00834 5.36869 1.17796 5.37522C1.72501 5.39627 2.26448 5.51423 2.77114 5.7241C3.33266 5.95669 3.84287 6.2976 4.27263 6.72737C4.7024 7.15713 5.04331 7.66734 5.2759 8.22886C5.48577 8.73552 5.60373 9.27499 5.62478 9.82204ZM7.87472 9.73547C7.88309 9.95287 7.70621 10.125 7.49502 10.125C7.28123 10.125 7.11356 9.95244 7.10493 9.74549C7.07511 9.02997 6.91968 8.32456 6.64512 7.66171C6.33805 6.92039 5.88798 6.2468 5.32059 5.67941C4.7532 5.11202 4.07962 4.66195 3.33829 4.35488C2.67544 4.08032 1.97003 3.92489 1.25451 3.89507C1.04756 3.88644 0.875 3.71877 0.875 3.50498C0.875 3.29379 1.04713 3.11692 1.26453 3.12528C2.07772 3.15657 2.87965 3.33193 3.63279 3.64389C4.46749 3.98963 5.22591 4.49639 5.86476 5.13524C6.50361 5.77409 7.01037 6.53252 7.35611 7.36721C7.66807 8.12035 7.84343 8.92228 7.87472 9.73547Z" fill="#4CD964" stroke="#4CD964" stroke-width="0.25"/>
</svg>
