<svg width="25" height="25" viewBox="0 0 25 25" fill="none" xmlns="http://www.w3.org/2000/svg">
<path d="M22.7263 15.0007C23.7926 17.575 24.392 20.3162 24.499 23.0958C24.5292 23.8804 23.8909 24.5 23.1312 24.5C22.3611 24.5 21.759 23.8787 21.728 23.1359C21.6267 20.7065 21.099 18.3114 20.1668 16.0609C19.1242 13.5438 17.5961 11.2568 15.6696 9.33037C13.7432 7.40392 11.4562 5.87579 8.93915 4.8332C6.68858 3.90099 4.29354 3.37329 1.86413 3.27201C1.12127 3.24104 0.5 2.63895 0.5 1.86881C0.5 1.10909 1.11956 0.470818 1.90421 0.501009C4.68385 0.607963 7.42497 1.20736 9.99933 2.2737C12.8525 3.45551 15.4449 5.18771 17.6286 7.37141C19.8123 9.5551 21.5445 12.1475 22.7263 15.0007ZM12.0941 19.4047C12.6386 20.7192 12.9447 22.1189 12.9993 23.5383C13.0201 24.0787 12.5809 24.5 12.0656 24.5C11.5399 24.5 11.135 24.077 11.1142 23.5783C11.0648 22.3929 10.8073 21.2243 10.3524 20.1261C9.8437 18.8979 9.09805 17.782 8.15804 16.842C7.21803 15.902 6.10208 15.1563 4.8739 14.6476C3.77574 14.1927 2.60708 13.9352 1.42165 13.8858C0.923019 13.865 0.5 13.4601 0.5 12.9344C0.5 12.4191 0.921328 11.9799 1.46172 12.0007C2.88109 12.0553 4.28079 12.3614 5.59534 12.9059C7.05224 13.5093 8.37601 14.3939 9.49107 15.5089C10.6061 16.624 11.4907 17.9478 12.0941 19.4047ZM17.4102 17.2027C18.2156 19.1471 18.6684 21.2175 18.7492 23.317C18.7746 23.9796 18.2359 24.5 17.5984 24.5C16.9505 24.5 16.447 23.9779 16.4211 23.3571C16.3458 21.5497 15.9532 19.7678 15.2596 18.0935C14.484 16.2209 13.3471 14.5194 11.9138 13.0862C10.4806 11.6529 8.77913 10.516 6.90653 9.74039C5.23216 9.04684 3.45031 8.65425 1.64289 8.5789C1.02215 8.55302 0.5 8.04953 0.5 7.40161C0.5 6.7641 1.02044 6.22536 1.68297 6.25085C3.78247 6.33163 5.85288 6.78437 7.79733 7.58979C9.95235 8.48243 11.9105 9.79079 13.5598 11.4402C15.2092 13.0895 16.5176 15.0476 17.4102 17.2027Z" fill="#A1A1A1" stroke="#A1A1A1"/>
</svg>
