<svg width="30" height="31" viewBox="0 0 30 31" fill="none" xmlns="http://www.w3.org/2000/svg">
<path d="M29.4989 28.8656C29.5321 29.76 28.8256 30.5 27.9423 30.5C27.0504 30.5 26.377 29.759 26.3426 28.9043C26.2187 25.8238 25.5726 22.7872 24.4316 19.9342C23.1555 16.7434 21.2856 13.8454 18.9294 11.405C16.5732 8.9647 13.777 7.02991 10.7009 5.71022C7.95037 4.53024 5.02386 3.86251 2.05577 3.73436C1.19143 3.69704 0.5 2.97743 0.5 2.09546C0.5 1.22585 1.18903 0.465007 2.09729 0.501203C5.47054 0.635633 8.79665 1.38902 11.9199 2.72891C15.3813 4.21389 18.5253 6.38997 21.1728 9.132C23.8202 11.874 25.9194 15.1283 27.3513 18.7086C28.6433 21.9391 29.3693 25.3784 29.4989 28.8656ZM15.4993 29.4235C15.5211 30.01 15.0569 30.5 14.4712 30.5C13.8769 30.5 13.4435 30.0089 13.4215 29.4622C13.3607 27.9502 13.0436 26.4599 12.4837 25.0599C11.8575 23.4942 10.9402 22.0727 9.78485 20.8762C8.62956 19.6796 7.25899 18.7314 5.75186 18.0849C4.4043 17.5068 2.97078 17.1797 1.5171 17.1169C0.950083 17.0925 0.5 16.6215 0.5 16.0477C0.5 15.4863 0.947695 14.9765 1.5586 15.0008C3.27588 15.0692 4.96895 15.4528 6.55851 16.1347C8.32018 16.8905 9.91971 17.9977 11.2662 19.3924C12.6127 20.7869 13.68 22.4416 14.4078 24.2615C15.0645 25.9035 15.4334 27.6514 15.4993 29.4235ZM22.4991 29.1445C22.5266 29.885 21.9413 30.5 21.2067 30.5C20.4636 30.5 19.9103 29.8839 19.8821 29.1832C19.7897 26.887 19.3081 24.6235 18.4576 22.4971C17.5065 20.1188 16.1129 17.9591 14.3571 16.1406C12.6014 14.3222 10.518 12.8807 8.22636 11.8975C6.17734 11.0185 3.99732 10.5211 1.78644 10.4257C1.07076 10.3948 0.5 9.79946 0.5 9.0716C0.5 8.35609 1.06836 7.72073 1.82794 7.751C4.37321 7.85244 6.8828 8.4209 9.2392 9.43181C11.8508 10.5522 14.2225 12.1938 16.2195 14.2622C18.2165 16.3305 19.7997 18.785 20.8795 21.485C21.8539 23.9213 22.4014 26.5149 22.4991 29.1445Z" fill="#4CD964" stroke="#4CD964"/>
</svg>
