<svg width="375" height="20" viewBox="0 0 375 20" fill="none" xmlns="http://www.w3.org/2000/svg">
<path fill-rule="evenodd" clip-rule="evenodd" d="M0 0V20H375V0H0Z" fill="black" fill-opacity="0.01"/>
<path d="M34.1738 10.2305V9.19922H30.7461V10.125H33.125V10.3301C33.125 11.7598 32.0996 12.7266 30.5879 12.7266C28.8887 12.7266 27.834 11.4023 27.834 9.26953C27.834 7.16602 28.9062 5.81836 30.582 5.81836C31.8359 5.81836 32.6855 6.42188 33.0488 7.56445H34.1211C33.8164 5.88867 32.457 4.8457 30.582 4.8457C28.2676 4.8457 26.75 6.59766 26.75 9.26953C26.75 11.9766 28.2441 13.6992 30.582 13.6992C32.7441 13.6992 34.1738 12.3164 34.1738 10.2305ZM35.6387 11.291C35.75 12.75 36.9863 13.6992 38.7793 13.6992C40.7129 13.6992 41.9375 12.709 41.9375 11.1562C41.9375 9.91406 41.2344 9.23438 39.4824 8.79492L38.5977 8.56055C37.4316 8.26172 36.9688 7.88086 36.9688 7.21875C36.9688 6.36328 37.7129 5.80078 38.8379 5.80078C39.8926 5.80078 40.6074 6.31641 40.7539 7.18359H41.8145C41.7266 5.81836 40.5078 4.8457 38.873 4.8457C37.0859 4.8457 35.8848 5.81836 35.8848 7.25391C35.8848 8.45508 36.5469 9.14648 38.0762 9.5332L39.1602 9.81445C40.3262 10.1074 40.8535 10.5645 40.8535 11.2852C40.8535 12.123 40.0156 12.7383 38.8789 12.7383C37.6777 12.7383 36.834 12.1758 36.7051 11.291H35.6387Z" fill="black"/>
<path d="M315.812 14.5H316.867V6.04492H315.818L313.568 7.66211V8.77539L315.719 7.2168H315.812V14.5ZM322.234 14.6992C324.133 14.6992 325.223 13.0938 325.223 10.2871C325.223 7.48633 324.115 5.8457 322.234 5.8457C320.342 5.8457 319.234 7.48047 319.234 10.2695C319.234 13.082 320.33 14.6992 322.234 14.6992ZM322.234 13.7793C320.986 13.7793 320.295 12.5312 320.295 10.2695C320.295 8.03711 320.998 6.77148 322.234 6.77148C323.471 6.77148 324.162 8.02539 324.162 10.2695C324.162 12.5371 323.482 13.7793 322.234 13.7793ZM329.793 14.6992C331.691 14.6992 332.781 13.0938 332.781 10.2871C332.781 7.48633 331.674 5.8457 329.793 5.8457C327.9 5.8457 326.793 7.48047 326.793 10.2695C326.793 13.082 327.889 14.6992 329.793 14.6992ZM329.793 13.7793C328.545 13.7793 327.854 12.5312 327.854 10.2695C327.854 8.03711 328.557 6.77148 329.793 6.77148C331.029 6.77148 331.721 8.02539 331.721 10.2695C331.721 12.5371 331.041 13.7793 329.793 13.7793ZM337.639 7.93164C337.639 6.73633 336.895 5.89844 335.84 5.89844C334.785 5.89844 334.035 6.74219 334.035 7.93164C334.035 9.12695 334.785 9.9707 335.84 9.9707C336.895 9.9707 337.639 9.12695 337.639 7.93164ZM335.84 9.2207C335.318 9.2207 334.973 8.71094 334.973 7.93164C334.973 7.15234 335.312 6.64844 335.84 6.64844C336.367 6.64844 336.701 7.14062 336.701 7.93164C336.701 8.70508 336.355 9.2207 335.84 9.2207ZM335.746 14.5L338.646 10.5332L341.928 6.04492H340.861L337.896 10.0938L334.668 14.5H335.746ZM342.531 12.6074C342.531 11.4121 341.787 10.5742 340.732 10.5742C339.678 10.5742 338.928 11.418 338.928 12.6074C338.928 13.8027 339.678 14.6465 340.732 14.6465C341.787 14.6465 342.531 13.8027 342.531 12.6074ZM340.732 13.8965C340.211 13.8965 339.865 13.3867 339.865 12.6074C339.865 11.8281 340.205 11.3242 340.732 11.3242C341.26 11.3242 341.594 11.8164 341.594 12.6074C341.594 13.3809 341.248 13.8965 340.732 13.8965Z" fill="#030303"/>
<path opacity="0.4" d="M346.5 7.5C346.5 6.39543 347.395 5.5 348.5 5.5H365.5C366.605 5.5 367.5 6.39543 367.5 7.5V13C367.5 14.1046 366.605 15 365.5 15H364.469H348.5C347.395 15 346.5 14.1046 346.5 13V7.5Z" stroke="black"/>
<path fill-rule="evenodd" clip-rule="evenodd" d="M369 12.374C369.863 12.152 370.5 11.3689 370.5 10.437C370.5 9.50507 369.863 8.72202 369 8.5V12.374Z" fill="black" fill-opacity="0.5"/>
<path fill-rule="evenodd" clip-rule="evenodd" d="M348 8C348 7.44772 348.448 7 349 7H365C365.552 7 366 7.44772 366 8V12.5C366 13.0523 365.552 13.5 365 13.5H349C348.448 13.5 348 13.0523 348 12.5V8Z" fill="black"/>
<path fill-rule="evenodd" clip-rule="evenodd" d="M51.9876 5.5C54.5506 5.5 56.863 6.53944 58.5 8.20688L57.4119 9.26404C56.0539 7.86553 54.126 6.99223 51.9876 6.99223C49.8629 6.99223 47.9461 7.85432 46.5896 9.23709L45.5 8.18164C47.1355 6.52896 49.4375 5.5 51.9876 5.5ZM56.3235 10.3214C55.2448 9.19175 53.7014 8.48446 51.9876 8.48446C50.2883 8.48446 48.7566 9.17976 47.6793 10.2927L48.7693 11.3486C49.5672 10.5054 50.7136 9.97668 51.9876 9.97668C53.2769 9.97668 54.4356 10.5182 55.2346 11.3793L56.3235 10.3214ZM54.1444 12.4385C53.6264 11.8454 52.8524 11.4689 51.9876 11.4689C51.139 11.4689 50.3779 11.8314 49.8602 12.4053L52.0225 14.5L54.1444 12.4385Z" fill="#030303"/>
<path fill-rule="evenodd" clip-rule="evenodd" d="M19.5 5C19.2239 5 19 5.22386 19 5.5V14C19 14.2761 19.2239 14.5 19.5 14.5H21C21.2761 14.5 21.5 14.2761 21.5 14V5.5C21.5 5.22386 21.2761 5 21 5H19.5ZM15.5 7.5C15.2239 7.5 15 7.72386 15 8V14C15 14.2761 15.2239 14.5 15.5 14.5H17C17.2761 14.5 17.5 14.2761 17.5 14V8C17.5 7.72386 17.2761 7.5 17 7.5H15.5ZM11 10C11 9.72386 11.2239 9.5 11.5 9.5H13C13.2761 9.5 13.5 9.72386 13.5 10V14C13.5 14.2761 13.2761 14.5 13 14.5H11.5C11.2239 14.5 11 14.2761 11 14V10ZM7.5 11.5C7.22386 11.5 7 11.7239 7 12V14C7 14.2761 7.22386 14.5 7.5 14.5H9C9.27614 14.5 9.5 14.2761 9.5 14V12C9.5 11.7239 9.27614 11.5 9 11.5H7.5Z" fill="black"/>
<path fill-rule="evenodd" clip-rule="evenodd" d="M158 9V8C158 6.34652 156.657 5 155 5C153.347 5 152 6.34315 152 8V9H151.997C151.453 9 151 9.44359 151 9.99078V14.0092C151 14.549 151.446 15 151.997 15H158.003C158.547 15 159 14.5564 159 14.0092V9.99078C159 9.45098 158.554 9 158.003 9H158ZM153 9H157V8.00592C157 6.88655 156.105 6 155 6C153.888 6 153 6.89808 153 8.00592V9Z" fill="black"/>
<path d="M168.203 14.2051C170.354 14.2051 171.631 12.5234 171.631 9.67578C171.631 8.60352 171.426 7.70117 171.033 7.00391C170.465 5.91992 169.486 5.33398 168.25 5.33398C166.41 5.33398 165.109 6.57031 165.109 8.30469C165.109 9.93359 166.281 11.1172 167.893 11.1172C168.883 11.1172 169.686 10.6543 170.084 9.85156H170.102C170.102 9.85156 170.125 9.85156 170.131 9.85156C170.143 9.85156 170.184 9.85156 170.184 9.85156C170.184 11.7852 169.451 12.9395 168.215 12.9395C167.488 12.9395 166.926 12.541 166.732 11.9023H165.227C165.479 13.291 166.656 14.2051 168.203 14.2051ZM168.256 9.91602C167.283 9.91602 166.592 9.22461 166.592 8.25781C166.592 7.31445 167.318 6.59375 168.262 6.59375C169.205 6.59375 169.932 7.32617 169.932 8.28125C169.932 9.22461 169.223 9.91602 168.256 9.91602ZM174.344 14.123C174.9 14.123 175.281 13.7246 175.281 13.1973C175.281 12.6641 174.9 12.2715 174.344 12.2715C173.793 12.2715 173.406 12.6641 173.406 13.1973C173.406 13.7246 173.793 14.123 174.344 14.123ZM174.344 9.72852C174.9 9.72852 175.281 9.33594 175.281 8.80859C175.281 8.27539 174.9 7.88281 174.344 7.88281C173.793 7.88281 173.406 8.27539 173.406 8.80859C173.406 9.33594 173.793 9.72852 174.344 9.72852ZM181.006 14H182.453V12.4238H183.596V11.1465H182.453V5.54492H180.32C178.826 7.79492 177.637 9.67578 176.875 11.0762V12.4238H181.006V14ZM178.275 11.0938C179.26 9.35938 180.139 7.9707 180.947 6.77539H181.029V11.1816H178.275V11.0938ZM187.059 14H188.57V5.54492H187.064L184.855 7.0918V8.54492L186.959 7.06836H187.059V14ZM199.785 14H201.408L198.402 5.54492H196.703L193.703 14H195.232L195.959 11.8379H199.07L199.785 14ZM197.471 7.15625H197.57L198.719 10.6426H196.311L197.471 7.15625ZM211.592 14V5.54492H209.822L207.279 11.7031H207.174L204.631 5.54492H202.861V14H204.268V8.05273H204.35L206.688 13.6719H207.766L210.104 8.05273H210.186V14H211.592Z" fill="#030303"/>
</svg>
