<svg width="9" height="42" viewBox="0 0 9 42" fill="none" xmlns="http://www.w3.org/2000/svg">
<circle cx="4.5" cy="4.5" r="4" fill="#EFEFF4" stroke="#A1A1A1"/>
<path fill-rule="evenodd" clip-rule="evenodd" d="M9 33.5C9 34.0853 8.88826 34.6445 8.68495 35.1574C8.66458 35.2839 8.61865 35.4102 8.54375 35.53L5.348 40.6432C4.95633 41.2699 4.04367 41.2699 3.652 40.6432L0.456248 35.53C0.381342 35.4101 0.335419 35.2839 0.315051 35.1574C0.11174 34.6445 0 34.0853 0 33.5C0 31.0147 2.01472 29 4.5 29C6.98528 29 9 31.0147 9 33.5ZM4.5 35C5.32843 35 6 34.3284 6 33.5C6 32.6716 5.32843 32 4.5 32C3.67157 32 3 32.6716 3 33.5C3 34.3284 3.67157 35 4.5 35Z" fill="#A1A1A1"/>
<circle cx="4.5" cy="25.5" r="1.5" fill="#A1A1A1" fill-opacity="0.5"/>
<circle cx="4.5" cy="19.5" r="1.5" fill="#A1A1A1" fill-opacity="0.5"/>
<circle cx="4.5" cy="13.5" r="1.5" fill="#A1A1A1" fill-opacity="0.5"/>
</svg>
