<svg width="13" height="14" viewBox="0 0 13 14" fill="none" xmlns="http://www.w3.org/2000/svg">
<path fill-rule="evenodd" clip-rule="evenodd" d="M12.4965 12.5741L9.05951 8.73955C9.6756 7.80246 10.0056 6.66953 10.001 5.50756C9.98927 2.47441 7.78948 0.0175744 5.06974 5.57178e-05C3.76819 -0.00651157 2.51835 0.567712 1.59864 1.59481C0.678928 2.6219 0.16575 4.01655 0.173425 5.46806C0.18518 8.50148 2.38517 10.9585 5.10516 10.9761C6.15132 10.9811 7.17091 10.6088 8.01174 9.91455L8.01533 9.91155L11.4492 13.7431C11.6348 13.9603 11.9115 14.0482 12.1719 13.9728C12.4323 13.8973 12.6357 13.6704 12.7031 13.3799C12.7705 13.0894 12.6914 12.7809 12.4965 12.5741ZM5.10156 9.87806C2.92569 9.8641 1.16572 7.89866 1.15617 5.47206C1.15029 4.311 1.56087 3.19551 2.2965 2.37389C3.03213 1.55228 4.03176 1.09273 5.07286 1.09756C7.24873 1.11151 9.0087 3.07695 9.01825 5.50356C9.02412 6.66461 8.61355 7.78011 7.87792 8.60172C7.14229 9.42334 6.14266 9.88288 5.10156 9.87806Z" fill="#A1A1A1"/>
</svg>
